#!OML:ASF E:\acrobat2\Project_11_07_03\Capture day 1\Session 1\Acrobat.ASF
:FULLY-SPECIFIED
:DEGREES
389
root 15.2364 31.5297 11.2517 -108.045 -37.0142 128.677
lowerback 36.6657 2.01468 -5.55467
upperback 16.6826 -2.11653 -3.12063
thorax 0.130055 -2.08093 0.278387
lowerneck -0.639039 -11.8595 -3.07611
upperneck -14.5896 -14.1491 18.7724
head -2.53247 -7.9551 6.33041
rclavicle -3.81667e-014 -6.36111e-015
rhumerus 9.87923 4.56929 -65.2751
rradius 35.2125
rwrist -22.7524
rhand -9.51705 -32.3101
rfingers 7.12502
rthumb 16.4487 -61.6327
lclavicle -3.81667e-014 -6.36111e-015
lhumerus -14.9239 1.13731 76.2227
lradius 4.75393
lwrist -13.2598
lhand -9.01916 -14.8021
lfingers 7.12502
lthumb 16.928 14.4801
rfemur -100.314 -25.1654 25.4512
rtibia 145.001
rfoot 3.34427 6.24454
rtoes 9.29815
lfemur -101.119 4.58105 -13.7431
ltibia 109.354
lfoot 12.2886 -14.123
ltoes -0.955785
390
root 15.2537 31.5635 11.2319 -106.836 -34.1886 128.532
lowerback 36.6805 1.7329 -6.71391
upperback 16.4427 -2.87543 -3.54319
thorax -0.0684569 -2.48952 0.674533
lowerneck -0.585035 -11.6461 -4.16103
upperneck -14.691 -13.9128 18.6358
head -2.51944 -7.79224 6.46388
rclavicle 6.99722e-014 -6.67916e-014
rhumerus 11.2731 8.76483 -63.4867
rradius 37.0773
rwrist -22.6019
rhand -9.77034 -32.5766
rfingers 7.12502
rthumb 16.2048 -61.9193
lclavicle 6.99722e-014 -6.67916e-014
lhumerus -11.7022 1.30713 75.6771
lradius 5.5015
lwrist -11.8462
lhand -10.6673 -14.869
lfingers 7.12502
lthumb 15.341 14.542
rfemur -100.298 -23.2692 25.7374
rtibia 143.977
rfoot 4.08756 6.2341
rtoes 12.7703
lfemur -101.128 5.44163 -12.8273
ltibia 108.294
lfoot 11.4113 -14.3381
ltoes -1.52341
391
root 15.2703 31.5866 11.2024 -105.717 -31.4099 128.501
lowerback 36.68 1.34867 -7.78747
upperback 16.1197 -3.74082 -4.0323
thorax -0.337809 -2.93283 0.991746
lowerneck -0.514317 -11.3446 -5.45978
upperneck -14.6999 -13.5605 18.7182
head -2.46238 -7.56707 6.69679
rclavicle -2.8625e-014 2.82274e-014
rhumerus 12.8059 12.9023 -61.4863
rradius 39.1422
rwrist -22.4222
rhand -10.0731 -32.877
rfingers 7.12502
rthumb 15.9132 -62.2432
lclavicle -2.8625e-014 2.82274e-014
lhumerus -8.70594 1.68339 74.8585
lradius 6.42089
lwrist -10.4113
lhand -12.3945 -14.9428
lfingers 7.12502
lthumb 13.6768 14.5878
rfemur -99.5587 -19.1553 24.9662
rtibia 142.693
rfoot 4.75793 5.03987
rtoes 17.1201
lfemur -100.722 6.27092 -11.8599
ltibia 107.141
lfoot 10.6378 -14.5076
ltoes -2.1393
392
root 15.2857 31.597 11.165 -104.683 -28.7282 128.579
lowerback 36.6901 0.832337 -8.6371
upperback 15.7298 -4.71527 -4.65391
thorax -0.691725 -3.40029 1.09502
lowerneck -0.538164 -10.9899 -6.86991
upperneck -14.574 -13.1295 19.0774
head -2.33306 -7.30038 7.02406
rclavicle -2.8625e-014 8.13029e-014
rhumerus 14.472 16.7932 -59.4304
rradius 41.3444
rwrist -21.9915
rhand -10.4396 -33.1302
rfingers 7.12502
rthumb 15.5603 -62.5242
lclavicle -2.8625e-014 8.13029e-014
lhumerus -5.90708 2.13388 73.6012
lradius 7.49892
lwrist -8.88145
lhand -14.0389 -15.0954
lfingers 7.12502
lthumb 12.0916 14.5352
rfemur -98.513 -15.4744 24.315
rtibia 141.129
rfoot 5.11942 3.81998
rtoes 20.651
lfemur -99.9426 7.04217 -10.8095
ltibia 105.927
lfoot 9.98303 -14.6663
ltoes -2.98095
393
root 15.2989 31.593 11.1209 -103.725 -26.169 128.758
lowerback 36.8163 0.273855 -9.12814
upperback 15.2098 -5.66285 -5.42105
thorax -1.13684 -3.81279 0.813964
lowerneck -0.70603 -10.7173 -8.02221
upperneck -14.3508 -12.7782 19.6707
head -2.1473 -7.08522 7.37218
rclavicle 5.725e-014 4.83924e-014
rhumerus 16.0132 19.9933 -57.5194
rradius 43.6326
rwrist -21.0714
rhand -10.8808 -33.2434
rfingers 7.12502
rthumb 15.1353 -62.6699
lclavicle 5.725e-014 4.83924e-014
lhumerus -3.15576 2.23016 71.8237
lradius 8.69058
lwrist -7.23221
lhand -15.5875 -15.3103
lfingers 7.12502
lthumb 10.5981 14.4025
rfemur -97.1709 -12.3238 23.8393
rtibia 139.303
rfoot 5.24236 2.55155
rtoes 22.9122
lfemur -98.8208 7.73456 -9.67251
ltibia 104.672
lfoot 9.45062 -14.8083
ltoes -4.16929
394
root 15.3086 31.572 11.0723 -102.834 -23.7368 129.038
lowerback 36.8014 -0.389712 -9.37554
upperback 14.7616 -6.66021 -6.32029
thorax -1.65479 -4.23435 0.34747
lowerneck -0.870024 -10.4347 -9.38348
upperneck -14.0947 -12.3852 20.7038
head -1.91122 -6.85859 7.89755
rclavicle -6.36111e-015 1.21756e-014
rhumerus 17.5962 22.8514 -55.6606
rradius 45.9683
rwrist -19.5787
rhand -11.3196 -33.1665
rfingers 7.12502
rthumb 14.7126 -62.6244
lclavicle -6.36111e-015 1.21756e-014
lhumerus -0.626459 2.3203 69.5694
lradius 9.8885
lwrist -5.65753
lhand -17.2129 -15.9109
lfingers 7.12502
lthumb 9.02991 13.8758
rfemur -95.5001 -9.72482 23.5862
rtibia 137.199
rfoot 5.20575 1.23539
rtoes 23.652
lfemur -97.3937 8.34344 -8.45426
ltibia 103.388
lfoot 9.09092 -14.89
ltoes -5.57621
395
root 15.3145 31.5329 11.0184 -101.998 -21.405 129.409
lowerback 36.756 -1.10416 -9.51829
upperback 14.2454 -7.70024 -7.24749
thorax -2.2782 -4.66666 -0.170053
lowerneck -1.01717 -10.1251 -10.9761
upperneck -13.75 -11.9524 22.0445
head -1.62387 -6.61124 8.57125
rclavicle -7.95139e-014 9.93923e-017
rhumerus 19.1965 25.4633 -53.8098
rradius 48.3264
rwrist -17.4695
rhand -11.6762 -32.8858
rfingers 7.12502
rthumb 14.369 -62.3685
lclavicle -7.95139e-014 9.93923e-017
lhumerus 1.50483 2.43554 66.9046
lradius 10.9662
lwrist -4.21656
lhand -19.1506 -16.3826
lfingers 7.12502
lthumb 7.1598 13.4763
rfemur -93.5829 -7.64568 23.4728
rtibia 134.878
rfoot 5.1242 -0.100038
rtoes 23.6889
lfemur -95.6609 8.85322 -7.17766
ltibia 102.048
lfoot 9.00614 -14.8407
ltoes -6.70839
396
root 15.3165 31.4752 10.958 -101.205 -19.1134 129.868
lowerback 36.6476 -1.74071 -9.74798
upperback 13.657 -8.66541 -8.02612
thorax -2.95216 -5.06798 -0.502163
lowerneck -1.07691 -9.82225 -12.9383
upperneck -13.4214 -11.5338 23.6098
head -1.31896 -6.36894 9.40816
rclavicle -7.95139e-014 -1.67973e-014
rhumerus 20.8197 27.8189 -51.6757
rradius 50.7226
rwrist -14.8704
rhand -11.955 -32.4429
rfingers 7.12502
rthumb 14.1004 -61.9445
lclavicle -7.95139e-014 -1.67973e-014
lhumerus 3.2367 1.77252 64.1905
lradius 11.8562
lwrist -3.09955
lhand -22.8652 -19.2886
lfingers 7.12502
lthumb 3.57325 10.6612
rfemur -91.4996 -6.04314 23.4009
rtibia 132.375
rfoot 5.08339 -1.4147
rtoes 23.0875
lfemur -93.6467 9.22615 -5.9409
ltibia 100.606
lfoot 9.16979 -14.6983
ltoes -8.66006
397
root 15.3138 31.3981 10.8929 -100.452 -16.8617 130.43
lowerback 36.4618 -2.30631 -10.074
upperback 13.0199 -9.5703 -8.68515
thorax -3.63546 -5.44552 -0.676644
lowerneck -1.15722 -9.50608 -15.0456
upperneck -13.0768 -11.1091 25.2308
head -1.00434 -6.11981 10.3219
rclavicle -3.49861e-014 -3.18055e-015
rhumerus 22.531 29.929 -49.2952
rradius 53.1697
rwrist -12.0044
rhand -12.1779 -31.9046
rfingers 7.12502
rthumb 13.8855 -61.421
lclavicle -3.49861e-014 -3.18055e-015
lhumerus 4.75878 4.15374 61.6538
lradius 11.4383
lwrist -6.38926
lhand -27.3235 -25.9604
lfingers 7.12502
lthumb -0.732542 4.01806
rfemur -89.2413 -4.78604 23.346
rtibia 129.682
rfoot 5.16952 -2.58207
rtoes 22.3039
lfemur -91.3983 9.45983 -4.77175
ltibia 99.0438
lfoot 9.67574 -14.3591
ltoes -10.6321
398
root 15.3057 31.3012 10.8255 -99.7331 -14.7238 131.107
lowerback 36.202 -2.8261 -10.4267
upperback 12.3369 -10.4161 -9.21471
thorax -4.32444 -5.79448 -0.720283
lowerneck -1.34012 -9.18326 -17.0586
upperneck -12.6663 -10.6917 26.638
head -0.690259 -5.8629 11.1757
rclavicle -2.54444e-014 -1.70955e-014
rhumerus 24.3442 31.7843 -46.695
rradius 55.6839
rwrist -9.15167
rhand -12.3646 -31.3543
rfingers 7.12502
rthumb 13.7056 -60.883
lclavicle -2.54444e-014 -1.70955e-014
lhumerus 7.95079 31.9481 62.8151
lradius 9.07002
lwrist -41.4015
lhand -23.2613 -27.8847
lfingers 7.12502
lthumb 3.19078 2.07119
rfemur -86.8252 -3.75929 23.3535
rtibia 126.807
rfoot 5.38707 -3.63206
rtoes 21.3611
lfemur -88.9659 9.5785 -3.63467
ltibia 97.3527
lfoot 10.6561 -13.7526
ltoes -11.5544
399
root 15.291 31.1837 10.7583 -99.0389 -12.7181 131.886
lowerback 35.7889 -3.32215 -10.7598
upperback 11.7008 -11.1909 -9.65196
thorax -5.01374 -6.11044 -0.622654
lowerneck -1.7005 -8.87107 -18.8361
upperneck -12.1454 -10.2974 27.6302
head -0.374837 -5.59654 11.8561
rclavicle -2.48083e-013 -8.64713e-014
rhumerus 26.2695 33.3479 -43.9063
rradius 58.2554
rwrist -6.57714
rhand -12.562 -30.8688
rfingers 7.12502
rthumb 13.5154 -60.4102
lclavicle -2.48083e-013 -8.64713e-014
lhumerus 19.2131 59.0691 72.2745
lradius 11.4929
lwrist -95.7282
lhand -16.8869 -26.5749
lfingers 7.12502
lthumb 9.34448 3.19802
rfemur -84.2383 -2.95608 23.4077
rtibia 123.743
rfoot 5.65322 -4.53793
rtoes 20.792
lfemur -86.3798 9.58827 -2.54372
ltibia 95.5324
lfoot 12.1333 -12.7825
ltoes -10.5351
400
root 15.2685 31.0457 10.6913 -98.3581 -10.806 132.743
lowerback 35.4157 -3.75076 -11.1839
upperback 10.9286 -11.9106 -9.87981
thorax -5.68235 -6.39217 -0.361723
lowerneck -2.23502 -8.59185 -20.3085
upperneck -11.5418 -9.93912 28.1107
head -0.0739315 -5.32772 12.2975
rclavicle 5.08889e-014 2.28602e-014
rhumerus 28.3042 34.6044 -40.9609
rradius 60.8783
rwrist -4.50083
rhand -12.8603 -30.5314
rfingers 7.12502
rthumb 13.2279 -60.0917
lclavicle 5.08889e-014 2.28602e-014
lhumerus 10.6891 39.5576 59.5259
lradius 13.9959
lwrist -83.0102
lhand -11.3551 -21.9049
lfingers 7.12502
lthumb 14.6784 7.55551
rfemur -81.5336 -2.38759 23.4449
rtibia 120.513
rfoot 6.01055 -5.25617
rtoes 20.4903
lfemur -83.6417 9.48077 -1.55237
ltibia 93.5753
lfoot 13.9922 -11.3804
ltoes -7.43121
